<?xml version="1.0" standalone="no"?>
<!DOCTYPE svg PUBLIC "-//W3C//DTD SVG 20010904//EN"
 "http://www.w3.org/TR/2001/REC-SVG-20010904/DTD/svg10.dtd">
<svg version="1.0" xmlns="http://www.w3.org/2000/svg"
 width="537.000000pt" height="537.000000pt" viewBox="0 0 537.000000 537.000000"
 preserveAspectRatio="xMidYMid meet">
<metadata>
Created by potrace 1.11, written by Peter Selinger 2001-2013
</metadata>
<g transform="translate(0.000000,537.000000) scale(0.100000,-0.100000)"
fill="#000000" stroke="none">
<path d="M1957 4891 c-20 -4 -40 -11 -44 -15 -4 -4 -9 -62 -11 -131 -5 -149
12 -242 67 -360 118 -251 356 -415 627 -432 133 -8 221 3 236 30 20 35 16 269
-6 346 -73 265 -259 459 -521 541 -76 24 -277 36 -348 21z"/>
<path d="M3220 4516 c-218 -59 -368 -280 -334 -492 l9 -59 55 -6 c288 -31 535
211 505 496 -7 60 -9 63 -37 69 -48 10 -149 6 -198 -8z"/>
<path d="M2213 3796 c-244 -47 -453 -176 -600 -371 -47 -62 -111 -183 -132
-247 l-13 -38 -133 0 c-127 0 -135 -1 -162 -24 -36 -31 -39 -95 -5 -128 22
-22 29 -23 298 -28 l276 -5 24 -28 c31 -36 31 -78 0 -114 l-24 -28 -602 -5
-602 -5 -24 -28 c-32 -38 -32 -90 1 -122 l24 -25 1481 0 1480 0 0 -87 c0 -76
-4 -96 -29 -148 -34 -74 -102 -137 -174 -162 -47 -16 -93 -18 -477 -18 l-425
0 -55 26 c-98 46 -152 108 -181 207 l-12 42 -364 0 -365 0 -29 -29 c-38 -38
-39 -87 -4 -125 23 -25 28 -26 132 -26 l108 0 40 -57 c55 -78 252 -276 358
-360 86 -69 89 -70 130 -62 50 9 123 -3 175 -30 67 -34 107 -89 152 -207 5
-14 66 -50 185 -110 l176 -89 142 73 c213 109 229 121 249 178 39 112 144 186
266 187 l67 0 85 71 c221 183 380 379 477 582 56 119 83 224 90 352 l6 102
-695 0 -694 0 -13 -37 c-30 -83 -95 -150 -186 -190 -34 -15 -72 -17 -275 -18
l-235 0 -3 68 -3 67 224 0 c160 0 226 3 235 12 20 20 15 76 -7 88 -12 6 -106
10 -235 10 l-216 0 0 65 0 65 216 0 c129 0 223 4 235 10 22 12 27 68 7 88 -9
9 -75 12 -235 12 l-224 0 3 68 3 67 190 3 c201 3 294 -7 354 -38 56 -28 117
-95 142 -155 l23 -55 683 0 c577 0 683 2 683 14 0 31 -44 155 -82 231 -214
432 -734 634 -1180 459 -51 -20 -102 -36 -113 -36 -11 -1 -52 13 -90 29 -39
17 -104 38 -145 48 -99 23 -285 28 -377 11z"/>
<path d="M955 2435 c-35 -34 -35 -96 0 -130 23 -24 29 -25 162 -25 144 1 159
5 181 47 20 37 14 73 -17 104 l-29 29 -137 0 c-131 0 -137 -1 -160 -25z"/>
<path d="M2290 2446 c0 -20 41 -76 73 -100 28 -20 41 -21 435 -24 224 -2 422
0 440 3 41 7 107 65 121 105 l10 30 -540 0 c-446 0 -539 -2 -539 -14z"/>
<path d="M2084 1746 c-202 -94 -180 -391 35 -464 109 -38 238 14 294 115 94
175 -22 373 -218 373 -42 0 -75 -7 -111 -24z m146 -151 c55 -29 65 -76 24
-124 -19 -23 -34 -31 -59 -31 -25 0 -40 8 -59 31 -14 17 -26 37 -26 44 0 30
21 65 47 79 35 19 38 19 73 1z"/>
<path d="M3379 1743 c-230 -117 -143 -473 116 -473 168 0 288 160 242 321 -45
153 -213 225 -358 152z m179 -169 c25 -28 28 -54 10 -87 -30 -57 -92 -64 -132
-16 -29 34 -31 45 -16 84 11 29 65 57 95 49 11 -3 30 -17 43 -30z"/>
<path d="M1080 685 l0 -265 213 0 c223 0 323 10 363 37 73 47 71 184 -2 224
l-23 12 29 34 c56 63 31 165 -50 205 -31 16 -67 18 -282 18 l-248 0 0 -265z
m490 155 c11 -11 20 -29 20 -40 0 -11 -9 -29 -20 -40 -19 -19 -33 -20 -205
-20 l-185 0 0 60 0 60 185 0 c172 0 186 -1 205 -20z m20 -220 c27 -27 25 -55
-6 -79 -25 -20 -40 -21 -215 -21 l-189 0 0 60 0 60 195 0 c182 0 196 -1 215
-20z"/>
<path d="M1860 685 l0 -265 285 0 285 0 0 50 0 50 -230 0 -230 0 0 65 0 65
150 0 150 0 0 50 0 50 -150 0 -150 0 0 55 0 55 220 0 220 0 0 45 0 45 -275 0
-275 0 0 -265z"/>
<path d="M2552 688 l3 -263 50 0 50 0 3 112 3 112 152 3 152 3 0 45 0 45 -152
3 -153 3 0 54 0 55 220 0 220 0 0 45 0 45 -275 0 -275 0 2 -262z"/>
<path d="M3202 688 l3 -263 283 -3 282 -2 0 50 0 50 -230 0 -230 0 0 65 0 64
153 3 152 3 0 45 0 45 -152 3 -153 3 0 54 0 55 220 0 220 0 0 45 0 45 -275 0
-275 0 2 -262z"/>
<path d="M3902 688 l3 -263 170 -3 c266 -4 358 19 418 105 41 60 57 108 57
170 -1 100 -51 177 -147 224 -45 23 -60 24 -276 27 l-227 3 2 -263z m419 161
c40 -14 85 -53 106 -93 20 -39 13 -128 -13 -163 -48 -64 -61 -68 -240 -71
l-164 -3 0 170 0 171 139 0 c76 0 153 -5 172 -11z"/>
</g>
</svg>
